<svg width="24" height="24" viewBox="0 0 24 24" fill="none" xmlns="http://www.w3.org/2000/svg">
<path d="M9.89832 7.59931L9.8983 7.59932C10.0845 8.19252 9.9318 8.82698 9.50119 9.26453L8.10329 11.1227C9.28704 13.3143 10.6685 14.6954 12.8774 15.8955L14.7876 14.4534C15.1803 14.063 15.8371 13.9193 16.4097 14.1141C17.4142 14.446 18.4749 14.6149 19.5557 14.6149C20.4625 14.6149 21.2 15.3525 21.2 16.2593V19.5556C21.2 20.4624 20.4626 21.2 19.5557 21.2C10.3163 21.2 2.8 13.6838 2.8 4.44431C2.8 3.5375 3.5375 2.8 4.44431 2.8H7.74998C8.65685 2.8 9.39434 3.5375 9.3943 4.44441L9.89832 7.59931ZM9.89832 7.59931L9.8974 7.59653M9.89832 7.59931L9.8974 7.59653M9.8974 7.59653C9.56386 6.58626 9.3943 5.52591 9.3943 4.44442L9.8974 7.59653ZM8.45344 8.33954L8.44521 8.3481L8.43806 8.35757L6.7193 10.6339L6.71922 10.634C6.55806 10.8477 6.53265 11.1341 6.65367 11.3727L6.65377 11.3729C8.07578 14.1679 9.81088 15.9028 12.6245 17.3447C12.8631 17.469 13.1526 17.4419 13.3661 17.2807L13.3664 17.2805L15.695 15.5164L15.7059 15.5081L15.7156 15.4984C15.7798 15.4343 15.8763 15.4113 15.9629 15.4408L15.9647 15.4414C17.1175 15.8222 18.3257 16.015 19.5557 16.015C19.6903 16.015 19.8 16.1247 19.8 16.2593V19.5557C19.8 19.6903 19.6903 19.8 19.5557 19.8C11.0885 19.8 4.20003 12.9115 4.20003 4.44436C4.20003 4.30971 4.30971 4.20003 4.44436 4.20003H7.75003C7.88468 4.20003 7.99436 4.30971 7.99436 4.44436C7.99436 5.67414 8.18739 6.88172 8.56537 8.02628C8.59024 8.10751 8.582 8.2057 8.45344 8.33954Z" fill="#B1B1B1" stroke="#B1B1B1" stroke-width="0.4"/>
</svg>
