<svg width="24" height="24" viewBox="0 0 24 24" fill="none" xmlns="http://www.w3.org/2000/svg">
<path d="M18.0744 11.4833C18.0387 10.1692 17.8369 8.86491 17.4738 7.60136L16.2721 7.39407L18.0744 11.4833ZM18.0744 11.4833H12.5167V7.03965C13.7754 7.06335 15.0307 7.18174 16.2719 7.39404L18.0744 11.4833ZM12.5167 16.9603C13.7754 16.9366 15.0305 16.8183 16.2716 16.606L12.5167 16.9603ZM12.5167 16.9603V12.5167H18.0744C18.0387 13.8308 17.8369 15.1351 17.4738 16.3986L16.2718 16.6059L12.5167 16.9603ZM12.0002 0.85H12C5.84209 0.85 0.85 5.84209 0.85 12C0.85 18.1579 5.84209 23.15 12 23.15C18.1579 23.15 23.15 18.1579 23.15 12V11.9998C23.1431 5.84492 18.1551 0.856896 12.0002 0.85ZM16.4482 6.37568L16.4477 6.37559C15.1485 6.15361 13.8343 6.02999 12.5167 6.00619V1.92276C14.4067 2.19044 16.0845 3.9193 17.0954 6.48847L16.4482 6.37568ZM7.55241 6.37565L6.90443 6.48776C7.91535 3.91761 9.59321 2.18801 11.4833 1.92108V6.00619C10.1657 6.02999 8.85184 6.15361 7.55272 6.37559L7.55241 6.37565ZM7.55215 17.6243L7.55231 17.6243C8.85147 17.8467 10.1655 17.9708 11.4833 17.9956V22.0791C9.59312 21.8113 7.91526 20.0823 6.90438 17.5127L7.55215 17.6243ZM16.4476 17.6243L17.0956 17.5122C16.0846 20.0824 14.4068 21.812 12.5167 22.0789V17.9956C13.8343 17.9708 15.1481 17.8467 16.4473 17.6243L16.4476 17.6243ZM22.101 12.5167C22.0461 13.6152 21.8112 14.6974 21.4055 15.72L18.5901 16.2058C18.9006 14.9995 19.0743 13.762 19.1075 12.5167H22.101ZM1.89894 12.5167H4.89254C4.92574 13.762 5.09934 14.9995 5.40995 16.2058L2.59454 15.72C2.18888 14.6974 1.9539 13.6152 1.89894 12.5167ZM2.59454 8.28L5.40995 7.79419C5.09934 9.00049 4.92574 10.238 4.89254 11.4833H1.89894C1.9539 10.3848 2.18888 9.30256 2.59454 8.28ZM7.72824 7.39407C7.72831 7.39406 7.72838 7.39405 7.72844 7.39404C8.96945 7.18174 10.2246 7.06335 11.4833 7.03965V11.4833H5.9256C5.96132 10.1692 6.1631 8.86491 6.52621 7.60137L7.72824 7.39407ZM5.9256 12.5167H11.4833V16.9603C10.2245 16.9366 8.96913 16.8183 7.72788 16.6059L6.52621 16.3986C6.1631 15.1351 5.96132 13.8308 5.9256 12.5167ZM22.101 11.4833H19.1075C19.0743 10.238 18.9006 9.00049 18.5901 7.79419L21.4055 8.28C21.8112 9.30256 22.0461 10.3848 22.101 11.4833ZM18.2597 6.68862C17.7796 5.1711 16.954 3.78882 15.8512 2.649C17.9803 3.53078 19.7513 5.11236 20.8665 7.13841L18.2597 6.68862ZM5.74025 6.68862L3.13347 7.13841C4.24872 5.11237 6.01968 3.53078 8.14881 2.649C7.04601 3.78882 6.2204 5.1711 5.74025 6.68862ZM5.74025 17.3114C6.2204 18.8289 7.04601 20.2111 8.14881 21.351C6.01967 20.4692 4.24872 18.8877 3.13347 16.8616L5.74025 17.3114ZM18.2597 17.3114L20.8665 16.8616C19.7513 18.8877 17.9803 20.4692 15.8512 21.351C16.954 20.2111 17.7796 18.8289 18.2597 17.3114Z" fill="#B1B1B1" stroke="#B1B1B1" stroke-width="0.3"/>
</svg>
